<!--?xml version="1.0" standalone="no"?--><svg id="图层_1" data-name="图层 1" xmlns="http://www.w3.org/2000/svg" xmlns:xlink="http://www.w3.org/1999/xlink" viewBox="0 0 1024 1024"><defs><style>.cls-1{fill:#ffc8a9;}.cls-2{fill:url(#未命名的渐变_67);}.cls-3{fill:#fff;}</style><linearGradient id="未命名的渐变_67" x1="203.22" y1="541.01" x2="786.79" y2="541.01" gradientUnits="userSpaceOnUse"><stop offset="0.06" stop-color="#cd1d1d"></stop><stop offset="0.54" stop-color="#fd1d1d"></stop><stop offset="1" stop-color="#fcb045"></stop></linearGradient></defs><title>服装4</title><rect class="cls-1" x="17.76" y="36.79" width="948.47" height="948.47" rx="474.24" ry="474.24"></rect><polygon class="cls-2" points="785.39 345.96 671.81 201.54 496.47 201.54 493.54 201.54 318.2 201.54 204.62 345.96 203.22 345.96 203.79 347.01 203.22 347.73 204.19 347.73 493.54 880.48 496.47 880.48 785.83 347.73 786.79 347.73 786.22 347.01 786.79 345.96 785.39 345.96"></polygon><path class="cls-3" d="M496.35,355.23H786.67c7.08,0,9.13-7.94,5.31-12.8l-37.77-48-61.4-78.07c-5-6.41-9.78-13.31-15.24-19.38-3.79-4.21-11.05-2.92-16.22-2.92H345.11c-8.64,0-17.34-.29-26,0-6.3.2-8.79,5.3-12.32,9.78L251.58,274l-51,64.82-2.81,3.57c-3.82,4.86-1.75,12.8,5.3,12.8H493.43c9.65,0,9.66-15,0-15H203.1L208.41,353l38.93-49.51L309.09,225l14.29-18.18-5.3,2.2H645c8.39,0,17.05.6,25.42,0,.41,0,.83,0,1.24,0l-5.31-2.2,38.94,49.51,61.74,78.51L781.37,353l5.3-12.81H496.35c-9.65,0-9.67,15,0,15Z"></path><path class="cls-3" d="M780.2,342.17l-29,53.31-69.5,128L598,677.69,525.57,811,501.7,854.91c-3.72,6.85-8.23,13.69-11.33,20.86a8.19,8.19,0,0,1-.5.92l6.48-3.72h-2.92l6.47,3.72L471,823.38l-69.5-128L317.67,541.17l-72.4-133.29c-11.7-21.54-22.67-43.71-35.19-64.79-.18-.3-.33-.61-.5-.92-4.61-8.48-17.56-.92-13,7.57l29,53.31,69.5,128,83.78,154.25,72.4,133.29c11.7,21.54,22.67,43.71,35.19,64.79.18.3.34.62.5.92a7.49,7.49,0,0,0,6.48,3.71h2.92a7.49,7.49,0,0,0,6.48-3.71L531.78,831l69.5-128,83.78-154.25,72.4-133.29c11.72-21.58,24-42.95,35.19-64.8.16-.31.33-.61.5-.92,4.61-8.48-8.34-16.06-12.95-7.57Z"></path><path class="cls-3" d="M501.63,878.48l-10.48-52.92L466,698.45,435.51,544.63,409.16,411.55l-8.74-44.14c-1.36-6.85-2.24-14-4.12-20.77-.08-.29-.12-.6-.18-.9l-.75,5.78L430,302.17l55.23-78.71L498,205.32l-11.78,1.52,36.68,45.67L581.05,325l13.57,16.89-1.93-7.3L582.13,389,557,518.71,526.55,675.47,500.11,811.79c-4.25,21.91-8.84,43.79-12.76,65.76l-.18.93c-1.83,9.43,12.62,13.47,14.46,4l4.79-24.68L519,793l17.65-91,20-103.31L576.42,497l16.74-86.31,11.05-57,2.56-13.16c.12-.66.27-1.32.38-2,.69-4.19-1.4-6.67-3.75-9.59l-50.52-62.9L499.82,200l-3-3.78c-3.27-4.07-9.3-2-11.78,1.52l-35.45,50.52L394,327.47c-3.77,5.36-8.34,10.68-11.53,16.42-1.83,3.3-.47,7.44.22,10.95L391.42,399l15.43,77.94,19.34,97.64,20.45,103.28,18.79,94.85,14.33,72.36c2.36,11.92,4.37,24,7.09,35.81.12.52.21,1.06.32,1.59C489,891.93,503.5,887.92,501.63,878.48Z"></path></svg>