<!--?xml version="1.0" encoding="utf-8"?-->
<!-- Generator: Adobe Illustrator 23.0.0, SVG Export Plug-In . SVG Version: 6.00 Build 0)  -->
<svg version="1.1" id="图层_1" xmlns="http://www.w3.org/2000/svg" xmlns:xlink="http://www.w3.org/1999/xlink" x="0px" y="0px" viewBox="0 0 1024 1024" style="enable-background:new 0 0 1024 1024;" xml:space="preserve">
<style type="text/css">
	.st0{fill:none;stroke:url(#SVGID_1_);stroke-width:5;stroke-miterlimit:10;}
	.st1{fill:url(#SVGID_2_);}
	.st2{fill:#FFFFFF;}
	.st3{fill:#4F46A3;}
	.st4{clip-path:url(#SVGID_4_);fill:url(#SVGID_5_);}
	.st5{fill:none;stroke:#FFFFFF;stroke-linecap:round;stroke-linejoin:round;stroke-miterlimit:10;}
	.st6{clip-path:url(#SVGID_7_);fill:url(#SVGID_8_);}
	.st7{clip-path:url(#SVGID_10_);fill:url(#SVGID_11_);}
	.st8{clip-path:url(#SVGID_13_);fill:url(#SVGID_14_);}
	.st9{fill:url(#SVGID_15_);stroke:#FFFFFF;stroke-linecap:round;stroke-linejoin:round;}
	.st10{fill:url(#SVGID_16_);stroke:#FFFFFF;stroke-linecap:round;stroke-linejoin:round;}
	.st11{fill:url(#SVGID_17_);stroke:#FFFFFF;stroke-linecap:round;stroke-linejoin:round;}
</style>
<g>
	<radialGradient id="SVGID_1_" cx="505.8835" cy="547" r="0" gradientUnits="userSpaceOnUse">
		<stop offset="0" style="stop-color:#FFB300"></stop>
		<stop offset="0.4946" style="stop-color:#FFE600"></stop>
		<stop offset="1" style="stop-color:#FF9F00"></stop>
	</radialGradient>
	<path class="st0" d="M505.88,547"></path>
</g>
<g>
	<g>
		<linearGradient id="SVGID_2_" gradientUnits="userSpaceOnUse" x1="441.8835" y1="416" x2="441.8835" y2="416">
			<stop offset="0" style="stop-color:#21D4FD"></stop>
			<stop offset="1" style="stop-color:#B721FF"></stop>
		</linearGradient>
		<path class="st1" d="M441.88,416"></path>
	</g>
</g>
<path class="st2" d="M419.8,379.42l-1.15,1.98c1.49-0.52,2.94-1.18,4.36-1.98H419.8z"></path>
<g>
	<path class="st2" d="M484,450.51h14.75l-18.03-31.23l-11.34,19.64C475.84,440.36,481.2,444.7,484,450.51z"></path>
	<path class="st2" d="M467.09,442.9l-4.39,7.61h16.34C476.4,446.46,472.09,443.59,467.09,442.9z"></path>
</g>
<g>
	<path class="st3" d="M453.31,567.7"></path>
</g>
<g>
	<g>
		<defs>
			<polygon id="SVGID_3_" points="500.36,753.67 500.36,753.68 794.25,753.68 500.36,64.51 231.46,752.28 			"></polygon>
		</defs>
		<clipPath id="SVGID_4_">
			<use xlink:href="#SVGID_3_" style="overflow:visible;"></use>
		</clipPath>
		
			<linearGradient id="SVGID_5_" gradientUnits="userSpaceOnUse" x1="-512.9484" y1="1893.2432" x2="-508.1944" y2="1893.2432" gradientTransform="matrix(-120.4934 0 0 120.4934 -61002.6094 -227714.5938)">
			<stop offset="0" style="stop-color:#34BFE9"></stop>
			<stop offset="1" style="stop-color:#FFFFFF"></stop>
		</linearGradient>
		<polygon class="st4" points="794.25,753.68 231.46,753.67 231.46,63.74 804.28,63.74 		"></polygon>
	</g>
	<polygon class="st5" points="500.36,753.67 500.36,753.68 794.25,753.68 500.36,64.51 231.46,752.27 	"></polygon>
	<g>
		<defs>
			<polygon id="SVGID_6_" points="231.46,752.28 73.97,855.77 500.36,64.51 			"></polygon>
		</defs>
		<clipPath id="SVGID_7_">
			<use xlink:href="#SVGID_6_" style="overflow:visible;"></use>
		</clipPath>
		
			<linearGradient id="SVGID_8_" gradientUnits="userSpaceOnUse" x1="-510.9422" y1="1897.5564" x2="-506.1882" y2="1897.5564" gradientTransform="matrix(-89.6906 0 0 89.6906 -45326.3477 -169733.2188)">
			<stop offset="0" style="stop-color:#34BFE9"></stop>
			<stop offset="1" style="stop-color:#FFFFFF"></stop>
		</linearGradient>
		<polygon class="st6" points="500.36,855.77 73.97,855.77 73.97,63.74 500.36,64.51 		"></polygon>
	</g>
	<polygon class="st5" points="231.45,752.28 73.97,855.78 500.36,64.51 	"></polygon>
	<g>
		<defs>
			<polygon id="SVGID_9_" points="794.25,753.68 950.03,856.87 500.36,64.51 			"></polygon>
		</defs>
		<clipPath id="SVGID_10_">
			<use xlink:href="#SVGID_9_" style="overflow:visible;"></use>
		</clipPath>
		
			<linearGradient id="SVGID_11_" gradientUnits="userSpaceOnUse" x1="-511.058" y1="1896.796" x2="-506.2915" y2="1896.796" gradientTransform="matrix(94.3393 0 0 94.3393 48713.2148 -178481.7188)">
			<stop offset="0" style="stop-color:#34BFE9"></stop>
			<stop offset="1" style="stop-color:#FFFFFF"></stop>
		</linearGradient>
		<polygon class="st7" points="501.54,856.87 950.03,856.87 950.03,65.29 500.36,64.51 		"></polygon>
	</g>
	<polygon class="st5" points="794.25,753.68 950.03,856.87 500.36,64.51 	"></polygon>
	<g>
		<defs>
			<polygon id="SVGID_12_" points="231.46,959.49 788.59,958.85 950.03,856.87 794.25,753.68 231.46,752.28 73.97,855.77 			"></polygon>
		</defs>
		<clipPath id="SVGID_13_">
			<use xlink:href="#SVGID_12_" style="overflow:visible;"></use>
		</clipPath>
		
			<linearGradient id="SVGID_14_" gradientUnits="userSpaceOnUse" x1="-512.8975" y1="1891.2905" x2="-508.1434" y2="1891.2905" gradientTransform="matrix(-184.2763 0 0 184.2763 -93564.8203 -347664.125)">
			<stop offset="0" style="stop-color:#FFFFFF"></stop>
			<stop offset="1" style="stop-color:#34BFE9"></stop>
		</linearGradient>
		<rect x="73.97" y="752.28" class="st8" width="876.05" height="207.21"></rect>
	</g>
	<polygon class="st5" points="231.45,959.49 788.59,958.85 950.03,856.87 794.25,753.68 231.45,752.28 73.97,855.78 	"></polygon>
	<linearGradient id="SVGID_15_" gradientUnits="userSpaceOnUse" x1="231.4546" y1="408.3947" x2="508.1861" y2="408.3947">
		<stop offset="0" style="stop-color:#FFFFFF"></stop>
		<stop offset="0.1007" style="stop-color:#F7FCFE"></stop>
		<stop offset="0.2566" style="stop-color:#E1F6FC"></stop>
		<stop offset="0.4483" style="stop-color:#BEEAF8"></stop>
		<stop offset="0.6684" style="stop-color:#8CDBF3"></stop>
		<stop offset="0.9093" style="stop-color:#4EC7EC"></stop>
		<stop offset="1" style="stop-color:#34BFE9"></stop>
	</linearGradient>
	<polygon class="st9" points="500.36,64.51 508.19,558.91 231.45,752.28 	"></polygon>
	
		<linearGradient id="SVGID_16_" gradientUnits="userSpaceOnUse" x1="990.4778" y1="409.0945" x2="1284.3633" y2="409.0945" gradientTransform="matrix(-1 0 0 1 1784.7266 0)">
		<stop offset="0" style="stop-color:#34BFE9"></stop>
		<stop offset="1" style="stop-color:#FFFFFF"></stop>
	</linearGradient>
	<polygon class="st10" points="500.36,64.51 508.19,558.91 794.25,753.68 	"></polygon>
	<linearGradient id="SVGID_17_" gradientUnits="userSpaceOnUse" x1="231.4546" y1="655.5945" x2="791.0503" y2="655.5945">
		<stop offset="0" style="stop-color:#34BFE9"></stop>
		<stop offset="1" style="stop-color:#FFFFFF"></stop>
	</linearGradient>
	<polygon class="st11" points="231.45,752.28 508.19,558.91 791.05,751.45 	"></polygon>
</g>
</svg>